<svg width="34" height="32" viewBox="0 0 34 32" fill="none" xmlns="http://www.w3.org/2000/svg">
<path d="M33.8 6.76002V7.88668C33.8 8.03609 33.7407 8.17938 33.635 8.28502C33.5294 8.39067 33.3861 8.45002 33.2367 8.45002H31.5467V9.29502C31.5467 9.76167 31.1683 10.14 30.7017 10.14H3.09833C2.63168 10.14 2.25333 9.76167 2.25333 9.29502V8.45002H0.563333C0.413928 8.45002 0.270642 8.39067 0.164996 8.28502C0.059351 8.17938 0 8.03609 0 7.88668V6.76002C8.05668e-07 6.64857 0.0330591 6.53963 0.0949921 6.44697C0.156925 6.35432 0.24495 6.28211 0.347929 6.2395L16.6846 0.0428324C16.8225 -0.0142775 16.9775 -0.0142775 17.1154 0.0428324L33.4521 6.2395C33.555 6.28211 33.6431 6.35432 33.705 6.44697C33.7669 6.53963 33.8 6.64857 33.8 6.76002ZM32.11 28.1667H1.69C0.756627 28.1667 0 28.9233 0 29.8567V30.9833C0 31.1328 0.059351 31.276 0.164996 31.3817C0.270642 31.4873 0.413928 31.5467 0.563333 31.5467H33.2367C33.3861 31.5467 33.5294 31.4873 33.635 31.3817C33.7407 31.276 33.8 31.1328 33.8 30.9833V29.8567C33.8 28.9233 33.0434 28.1667 32.11 28.1667ZM5.63333 11.2667V24.7867H3.09833C2.63168 24.7867 2.25333 25.165 2.25333 25.6317V27.04H31.5467V25.6317C31.5467 25.165 31.1683 24.7867 30.7017 24.7867H28.1667V11.2667H23.66V24.7867H19.1533V11.2667H14.6467V24.7867H10.14V11.2667H5.63333Z" fill="white"/>
</svg>
