<svg width="41" height="34" viewBox="0 0 41 34" fill="none" xmlns="http://www.w3.org/2000/svg">
<path d="M15.1907 27.6478C14.9853 27.2619 14.6274 27.2228 14.4826 27.2228C14.3378 27.2228 13.9799 27.2612 13.7849 27.6263L13.2509 28.6262C12.8073 29.4593 11.5081 29.3674 11.1982 28.49L10.0264 25.2001L9.28765 27.2782C8.87754 28.4294 7.72938 29.2031 6.43291 29.2031H5.57022C4.95471 29.2031 4.45618 28.7364 4.45618 28.1602C4.45618 27.5839 4.95471 27.1172 5.57022 27.1172H6.43291C6.76921 27.1172 7.06722 26.9164 7.17375 26.6179L8.44028 23.0561C8.67005 22.4167 9.30645 21.9864 10.0264 21.9864C10.7464 21.9864 11.3827 22.416 11.6118 23.0561L12.5783 25.7705C13.9534 24.7151 16.3423 25.1382 17.1737 26.6935C17.3053 26.9399 17.5559 27.0813 17.8254 27.1015V21.7485L26.7378 13.4641V10.4297H17.2677C16.3486 10.4297 15.5966 9.72568 15.5966 8.86523V0H1.67107C0.745017 0 0 0.697485 0 1.56445V31.8105C0 32.6775 0.745017 33.375 1.67107 33.375H25.066C25.992 33.375 26.7371 32.6775 26.7371 31.8105V29.2031L17.8247 29.196C16.7023 29.1757 15.6955 28.591 15.1907 27.6478ZM26.7371 7.94612C26.7371 7.53545 26.563 7.13782 26.2497 6.84448L19.4331 0.456299C19.1198 0.162964 18.6951 0 18.2494 0H17.8247V8.34375H26.7371V7.94612ZM20.0528 22.6168V27.1172H24.8564L36.1138 16.5063L31.3875 12.0815L20.0528 22.6168ZM39.5862 10.9075L37.3671 8.83003C36.675 8.18209 35.5519 8.18209 34.8598 8.83003L32.9625 10.6063L37.6888 15.0311L39.5862 13.2548C40.279 12.6069 40.279 11.5554 39.5862 10.9075Z" fill="white"/>
</svg>
