<svg width="25" height="29" viewBox="0 0 25 29" fill="none" xmlns="http://www.w3.org/2000/svg">
<path d="M12.35 14.1143C16.248 14.1143 19.4071 10.9551 19.4071 7.05714C19.4071 3.15917 16.248 0 12.35 0C8.45203 0 5.29286 3.15917 5.29286 7.05714C5.29286 10.9551 8.45203 14.1143 12.35 14.1143ZM17.29 15.8786H16.3693C15.1453 16.4409 13.7835 16.7607 12.35 16.7607C10.9165 16.7607 9.56022 16.4409 8.33074 15.8786H7.41C3.31906 15.8786 0 19.1976 0 23.2886V25.5821C0 27.0432 1.18538 28.2286 2.64643 28.2286H22.0536C23.5146 28.2286 24.7 27.0432 24.7 25.5821V23.2886C24.7 19.1976 21.3809 15.8786 17.29 15.8786Z" fill="white"/>
</svg>
