<svg width="30" height="33" viewBox="0 0 30 33" fill="none" xmlns="http://www.w3.org/2000/svg">
<path d="M29.0991 30.4688H27.7643V1.52344C27.7643 0.682056 27.0472 0 26.1625 0H3.7375C2.85285 0 2.13571 0.682056 2.13571 1.52344V30.4688H0.800893C0.3586 30.4688 0 30.8098 0 31.2305V32.5H29.9V31.2305C29.9 30.8098 29.5414 30.4688 29.0991 30.4688ZM8.54286 4.82422C8.54286 4.40356 8.90146 4.0625 9.34375 4.0625H12.0134C12.4557 4.0625 12.8143 4.40356 12.8143 4.82422V7.36328C12.8143 7.78394 12.4557 8.125 12.0134 8.125H9.34375C8.90146 8.125 8.54286 7.78394 8.54286 7.36328V4.82422ZM8.54286 10.918C8.54286 10.4973 8.90146 10.1562 9.34375 10.1562H12.0134C12.4557 10.1562 12.8143 10.4973 12.8143 10.918V13.457C12.8143 13.8777 12.4557 14.2188 12.0134 14.2188H9.34375C8.90146 14.2188 8.54286 13.8777 8.54286 13.457V10.918ZM12.0134 20.3125H9.34375C8.90146 20.3125 8.54286 19.9714 8.54286 19.5508V17.0117C8.54286 16.5911 8.90146 16.25 9.34375 16.25H12.0134C12.4557 16.25 12.8143 16.5911 12.8143 17.0117V19.5508C12.8143 19.9714 12.4557 20.3125 12.0134 20.3125ZM17.0857 30.4688H12.8143V25.1367C12.8143 24.7161 13.1729 24.375 13.6152 24.375H16.2848C16.7271 24.375 17.0857 24.7161 17.0857 25.1367V30.4688ZM21.3571 19.5508C21.3571 19.9714 20.9985 20.3125 20.5562 20.3125H17.8866C17.4443 20.3125 17.0857 19.9714 17.0857 19.5508V17.0117C17.0857 16.5911 17.4443 16.25 17.8866 16.25H20.5562C20.9985 16.25 21.3571 16.5911 21.3571 17.0117V19.5508ZM21.3571 13.457C21.3571 13.8777 20.9985 14.2188 20.5562 14.2188H17.8866C17.4443 14.2188 17.0857 13.8777 17.0857 13.457V10.918C17.0857 10.4973 17.4443 10.1562 17.8866 10.1562H20.5562C20.9985 10.1562 21.3571 10.4973 21.3571 10.918V13.457ZM21.3571 7.36328C21.3571 7.78394 20.9985 8.125 20.5562 8.125H17.8866C17.4443 8.125 17.0857 7.78394 17.0857 7.36328V4.82422C17.0857 4.40356 17.4443 4.0625 17.8866 4.0625H20.5562C20.9985 4.0625 21.3571 4.40356 21.3571 4.82422V7.36328Z" fill="white"/>
</svg>
