<svg width="19" height="20" viewBox="0 0 19 20" fill="none" xmlns="http://www.w3.org/2000/svg">
<path d="M8.23792 0.0247757C3.6953 0.0247757 0 3.91456 0 8.69627C0 13.478 3.6953 17.3678 8.23792 17.3678C9.6266 17.3678 10.9917 17.0209 12.145 16.352C12.2374 16.469 12.3399 16.5768 12.451 16.674L14.8047 19.1516C15.0221 19.409 15.2871 19.617 15.5835 19.7627C15.88 19.9084 16.2016 19.9888 16.5286 19.9989C16.8556 20.009 17.1812 19.9487 17.4852 19.8216C17.7893 19.6945 18.0655 19.5033 18.2968 19.2598C18.5282 19.0163 18.7098 18.7256 18.8305 18.4055C18.9513 18.0854 19.0086 17.7428 18.999 17.3985C18.9893 17.0543 18.913 16.7157 18.7746 16.4037C18.6361 16.0917 18.4386 15.8127 18.194 15.5839L15.8403 13.1063C15.7257 12.9856 15.5995 12.8777 15.4638 12.7843C16.0993 11.5703 16.4994 10.158 16.4994 8.67149C16.4994 3.88978 12.8041 0 8.26146 0L8.23792 0.0247757ZM8.23792 2.50235C11.5096 2.50235 14.1221 5.25245 14.1221 8.69627C14.1221 10.3315 13.5573 11.8428 12.5687 12.9577C12.5452 12.9825 12.5216 13.0072 12.4981 13.032C12.3869 13.1293 12.2845 13.2371 12.1921 13.3541C11.1565 14.3451 9.74428 14.915 8.21438 14.915C4.94275 14.915 2.33015 12.1649 2.33015 8.72104C2.33015 5.27722 4.94275 2.52712 8.21438 2.52712L8.23792 2.50235Z" fill="#6179B8" fill-opacity="0.65"/>
</svg>
