<svg width="36" height="32" viewBox="0 0 36 32" fill="none" xmlns="http://www.w3.org/2000/svg">
<path d="M25.5976 0H23.1652C22.9939 0 22.8375 0.0968466 22.763 0.249566L20.6994 4.46612C20.1593 5.75864 19.6899 7.1443 19.6899 7.1443H19.6415C19.6415 7.1443 19.1722 5.75864 18.6321 4.46612L16.5685 0.249566C16.494 0.0968466 16.3376 0 16.1662 0H13.7376C13.3986 0 13.1863 0.361312 13.3428 0.655577L16.3264 6.25778H14.1548C13.909 6.25778 13.7078 6.45892 13.7078 6.70476V7.89672C13.7078 8.14256 13.909 8.3437 14.1548 8.3437H17.4401L18.1777 9.72935V10.7276H14.1548C13.909 10.7276 13.7078 10.9288 13.7078 11.1746V12.3666C13.7078 12.6124 13.909 12.8135 14.1548 12.8135H18.1777V16.2404C18.1777 16.4863 18.3788 16.6874 18.6246 16.6874H20.7106C20.9564 16.6874 21.1575 16.4863 21.1575 16.2404V12.8135H25.1804C25.4262 12.8135 25.6274 12.6124 25.6274 12.3666V11.1746C25.6274 10.9288 25.4262 10.7276 25.1804 10.7276H21.1575V9.72935L21.8951 8.3437H25.1804C25.4262 8.3437 25.6274 8.14256 25.6274 7.89672V6.70476C25.6274 6.45892 25.4262 6.25778 25.1804 6.25778H23.0088L25.9924 0.655577C26.1526 0.361312 25.9366 0 25.5976 0Z" fill="white"/>
<path d="M34.9004 20.4357C34.1719 19.7751 33.0359 19.8183 32.2704 20.4357L26.5658 24.9981C25.8682 25.5599 24.9977 25.8624 24.0963 25.8624H16.7927C16.2494 25.8624 15.8049 25.4179 15.8049 24.8746C15.8049 24.3314 16.2494 23.8868 16.7927 23.8868H21.6268C22.6084 23.8868 23.5221 23.2139 23.6826 22.2446C23.8864 21.0099 22.9356 19.9356 21.7317 19.9356H11.8537C10.1867 19.9356 8.57539 20.5098 7.27889 21.5593L4.40808 23.8868H0.987806C0.444513 23.8868 0 24.3314 0 24.8746V30.8015C0 31.3448 0.444513 31.7893 0.987806 31.7893H23.0159C23.9111 31.7893 24.7816 31.4868 25.4854 30.925L34.8201 23.4547C35.7586 22.7076 35.8326 21.2753 34.9004 20.4357Z" fill="white"/>
</svg>
