<svg width="31" height="36" viewBox="0 0 31 36" fill="none" xmlns="http://www.w3.org/2000/svg">
<path d="M23.5116 13.1474H21.7881C21.6666 13.1474 21.5558 13.1998 21.503 13.2825L20.0408 15.5665C19.658 16.2666 19.3255 17.0171 19.3255 17.0171H19.2912C19.2912 17.0171 18.9586 16.2666 18.5759 15.5665L17.1136 13.2825C17.0608 13.1998 16.95 13.1474 16.8286 13.1474H15.1077C14.8675 13.1474 14.717 13.3431 14.8279 13.5025L16.9421 16.5369H15.4033C15.2291 16.5369 15.0865 16.6459 15.0865 16.779V17.4247C15.0865 17.5578 15.2291 17.6668 15.4033 17.6668H17.7313L18.2539 18.4173V18.958H15.4033C15.2291 18.958 15.0865 19.067 15.0865 19.2001V19.8458C15.0865 19.9789 15.2291 20.0879 15.4033 20.0879H18.2539V21.9441C18.2539 22.0772 18.3964 22.1862 18.5706 22.1862H20.0487C20.2229 22.1862 20.3654 22.0772 20.3654 21.9441V20.0879H23.216C23.3902 20.0879 23.5327 19.9789 23.5327 19.8458V19.2001C23.5327 19.067 23.3902 18.958 23.216 18.958H20.3654V18.4173L20.888 17.6668H23.216C23.3902 17.6668 23.5327 17.5578 23.5327 17.4247V16.779C23.5327 16.6459 23.3902 16.5369 23.216 16.5369H21.6772L23.7914 13.5025C23.9049 13.3431 23.7518 13.1474 23.5116 13.1474Z" fill="white"/>
<path d="M29.7487 4.52056L26.1919 0.96381C25.5748 0.346697 24.7378 4.56352e-06 23.8651 0L12.0656 0C10.2482 0 8.775 1.47324 8.775 3.29062V6.58125H3.29062C1.47324 6.58125 0 8.05449 0 9.87187V31.8094C0 33.6268 1.47324 35.1 3.29062 35.1H18.6469C20.4643 35.1 21.9375 33.6268 21.9375 31.8094V28.5187H27.4219C29.2393 28.5187 30.7125 27.0455 30.7125 25.2281V6.84738C30.7125 5.97465 30.3658 5.13767 29.7487 4.52056ZM18.2355 31.8094H3.70195C3.59286 31.8094 3.48824 31.766 3.4111 31.6889C3.33396 31.6118 3.29062 31.5071 3.29062 31.398V10.2832C3.29062 10.1741 3.33396 10.0695 3.4111 9.99235C3.48824 9.91521 3.59286 9.87187 3.70195 9.87187H8.775V25.2281C8.775 27.0455 10.2482 28.5187 12.0656 28.5187H18.6469V31.398C18.6469 31.5071 18.6035 31.6118 18.5264 31.6889C18.4493 31.766 18.3446 31.8094 18.2355 31.8094ZM27.0105 25.2281H12.477C12.3679 25.2281 12.2632 25.1848 12.1861 25.1076C12.109 25.0305 12.0656 24.9259 12.0656 24.8168V3.70195C12.0656 3.59286 12.109 3.48824 12.1861 3.4111C12.2632 3.33396 12.3679 3.29062 12.477 3.29062H19.7437V9.32344C19.7437 10.2321 20.4804 10.9687 21.3891 10.9687H27.4219V24.8168C27.4219 24.9259 27.3785 25.0305 27.3014 25.1076C27.2243 25.1848 27.1196 25.2281 27.0105 25.2281ZM27.4219 7.67812H23.0344V3.29062H23.6947C23.8038 3.29062 23.9084 3.33395 23.9856 3.41108L27.3014 6.72693C27.3396 6.76513 27.3699 6.81048 27.3906 6.86039C27.4112 6.9103 27.4219 6.96379 27.4219 7.01781V7.67812Z" fill="white"/>
</svg>
