<svg width="35" height="28" viewBox="0 0 35 28" fill="none" xmlns="http://www.w3.org/2000/svg">
<path d="M32.0833 0H2.91667C1.30642 0 0 1.32333 0 2.95441V3.93922H35V2.95441C35 1.32333 33.6936 0 32.0833 0ZM0 24.6201C0 26.2512 1.30642 27.5745 2.91667 27.5745H32.0833C33.6936 27.5745 35 26.2512 35 24.6201V5.90882H0V24.6201ZM21.3889 10.3404C21.3889 10.0696 21.6076 9.84804 21.875 9.84804H30.625C30.8924 9.84804 31.1111 10.0696 31.1111 10.3404V11.3252C31.1111 11.5961 30.8924 11.8176 30.625 11.8176H21.875C21.6076 11.8176 21.3889 11.5961 21.3889 11.3252V10.3404ZM21.3889 14.2797C21.3889 14.0088 21.6076 13.7873 21.875 13.7873H30.625C30.8924 13.7873 31.1111 14.0088 31.1111 14.2797V15.2645C31.1111 15.5353 30.8924 15.7569 30.625 15.7569H21.875C21.6076 15.7569 21.3889 15.5353 21.3889 15.2645V14.2797ZM21.3889 18.2189C21.3889 17.9481 21.6076 17.7265 21.875 17.7265H30.625C30.8924 17.7265 31.1111 17.9481 31.1111 18.2189V19.2037C31.1111 19.4745 30.8924 19.6961 30.625 19.6961H21.875C21.6076 19.6961 21.3889 19.4745 21.3889 19.2037V18.2189ZM10.6944 9.84804C12.8394 9.84804 14.5833 11.6145 14.5833 13.7873C14.5833 15.96 12.8394 17.7265 10.6944 17.7265C8.54948 17.7265 6.80556 15.96 6.80556 13.7873C6.80556 11.6145 8.54948 9.84804 10.6944 9.84804ZM4.07726 22.4166C4.58767 20.8348 6.05208 19.6961 7.77778 19.6961H8.27604C9.02344 20.01 9.83767 20.1885 10.6944 20.1885C11.5512 20.1885 12.3715 20.01 13.1128 19.6961H13.6111C15.3368 19.6961 16.8012 20.8348 17.3116 22.4166C17.5061 23.0259 16.9957 23.6353 16.3637 23.6353H5.02517C4.39323 23.6353 3.88281 23.0198 4.07726 22.4166Z" fill="white"/>
</svg>
