<svg width="21" height="20" viewBox="0 0 21 20" fill="none" xmlns="http://www.w3.org/2000/svg">
<path d="M9.3133 0C9.13305 0 9.01288 0.100125 8.92275 0.225282L0.0901287 17.2716C0.0300429 17.3967 0 17.597 0 17.7472V19.7747C0 19.8999 0.120172 20 0.270386 20H20.7296C20.8798 20 21 19.8999 21 19.7747V17.7472C21 17.622 20.97 17.3967 20.9099 17.2716L12.0773 0.225282C12.0172 0.100125 11.867 0 11.6867 0H9.25322L9.3133 0ZM9.04292 7.50939H12.0472V12.5156H9.04292V7.50939ZM9.04292 15.0188H12.0472V17.5219H9.04292V15.0188Z" fill="#868686"/>
</svg>
